<?xml version="1.0" standalone="no"?>
<!DOCTYPE svg PUBLIC "-//W3C//DTD SVG 20010904//EN"
 "http://www.w3.org/TR/2001/REC-SVG-20010904/DTD/svg10.dtd">
<svg version="1.0" xmlns="http://www.w3.org/2000/svg"
 width="628.000000pt" height="628.000000pt" viewBox="0 0 628.000000 628.000000"
 preserveAspectRatio="xMidYMid meet">
<metadata>
Created by potrace 1.14, written by Peter Selinger 2001-2017
</metadata>
<g transform="translate(0.000000,628.000000) scale(0.100000,-0.100000)"
fill="#000000" stroke="none">
<path d="M2685 6270 c-3 -5 -31 -10 -61 -10 -30 0 -54 -4 -54 -9 0 -4 -21 -11
-47 -14 -56 -7 -146 -32 -186 -53 -16 -8 -35 -14 -43 -14 -7 0 -29 -9 -49 -20
-20 -11 -43 -20 -53 -20 -9 0 -37 -11 -61 -25 -23 -14 -49 -25 -57 -25 -8 0
-14 -4 -14 -10 0 -5 -9 -10 -20 -10 -11 0 -20 -3 -20 -7 0 -5 -20 -16 -45 -26
-25 -11 -45 -23 -45 -28 0 -5 -7 -9 -15 -9 -8 0 -15 -4 -15 -10 0 -5 -8 -10
-18 -10 -10 0 -24 -9 -32 -20 -8 -11 -19 -20 -25 -20 -5 0 -28 -16 -50 -35
-22 -19 -43 -35 -47 -35 -11 0 -138 -131 -138 -142 0 -6 -13 -23 -30 -38 -16
-15 -30 -35 -30 -44 0 -9 -7 -19 -15 -22 -8 -4 -15 -15 -15 -25 0 -10 -4 -19
-10 -19 -5 0 -10 -16 -10 -35 0 -19 -4 -35 -9 -35 -6 0 -11 -19 -13 -42 -3
-37 -6 -43 -28 -46 -14 -2 -29 -8 -34 -13 -6 -5 -18 -9 -28 -9 -10 0 -18 -4
-18 -10 0 -5 -7 -10 -15 -10 -20 0 -125 -103 -150 -147 -11 -18 -23 -33 -27
-33 -4 0 -8 -7 -8 -16 0 -9 -11 -27 -25 -40 -14 -13 -25 -30 -25 -39 0 -8 -4
-15 -10 -15 -5 0 -10 -6 -10 -14 0 -8 -9 -31 -19 -53 -10 -21 -27 -59 -36 -85
-9 -27 -21 -48 -26 -48 -5 0 -9 -16 -9 -35 0 -19 -4 -35 -10 -35 -5 0 -10 -16
-10 -35 0 -19 -4 -35 -10 -35 -5 0 -10 -18 -10 -40 0 -22 -4 -40 -10 -40 -5 0
-12 -23 -16 -50 -4 -28 -11 -53 -15 -56 -5 -3 -9 -27 -9 -55 0 -27 -4 -49 -10
-49 -6 0 -10 -35 -10 -84 0 -47 -4 -88 -10 -91 -14 -8 -14 -482 0 -490 6 -3
10 -28 10 -56 0 -27 5 -49 10 -49 6 0 10 -13 10 -29 0 -17 5 -33 10 -36 6 -3
10 -16 10 -29 0 -12 7 -31 15 -42 8 -10 15 -29 15 -41 0 -12 5 -25 10 -28 6
-3 10 -15 10 -26 0 -10 4 -19 9 -19 5 0 11 -12 13 -27 3 -16 9 -36 13 -45 5
-14 2 -18 -14 -18 -12 0 -21 5 -21 10 0 6 -13 10 -29 10 -17 0 -33 -4 -36 -10
-3 -5 -13 -10 -21 -10 -19 0 -60 -40 -68 -68 -4 -12 -12 -22 -17 -22 -5 0 -9
-9 -9 -19 0 -11 -4 -23 -10 -26 -5 -3 -10 -28 -10 -55 0 -27 -5 -52 -10 -55
-13 -8 -13 -265 0 -265 6 0 10 -43 10 -109 0 -63 4 -112 10 -116 6 -3 10 -26
10 -51 0 -25 4 -64 9 -87 5 -23 18 -81 28 -130 9 -48 21 -87 25 -87 5 0 8 -9
8 -19 0 -11 5 -23 10 -26 6 -3 10 -13 10 -22 0 -9 22 -37 49 -64 l49 -48 94
-3 93 -3 47 -70 c28 -40 48 -82 48 -97 0 -16 5 -28 10 -28 6 0 10 -18 10 -39
0 -22 4 -43 10 -46 5 -3 10 -17 10 -31 0 -31 29 -122 41 -130 5 -3 9 -18 9
-35 0 -16 5 -29 10 -29 6 0 10 -11 10 -24 0 -14 9 -40 19 -58 10 -18 22 -48
26 -66 4 -17 11 -32 16 -32 5 0 9 -9 9 -19 0 -11 5 -23 10 -26 5 -3 10 -15 10
-26 0 -10 5 -19 10 -19 6 0 10 -9 10 -20 0 -11 5 -20 10 -20 6 0 10 -11 10
-25 0 -14 3 -25 8 -25 10 0 42 -58 42 -76 0 -8 5 -14 10 -14 6 0 10 -7 10 -15
0 -9 11 -27 25 -41 14 -14 25 -30 25 -37 0 -7 9 -19 20 -27 11 -8 20 -21 20
-29 0 -8 7 -21 15 -30 62 -67 75 -83 75 -90 0 -13 409 -421 421 -421 6 0 36
-25 66 -55 30 -30 61 -55 67 -55 7 0 29 -16 50 -35 21 -19 44 -35 50 -35 6 0
18 -9 26 -20 8 -11 22 -20 32 -20 10 0 18 -4 18 -10 0 -5 11 -12 25 -16 14 -3
25 -10 25 -15 0 -5 9 -9 20 -9 11 0 20 -4 20 -10 0 -5 9 -10 19 -10 11 0 23
-5 26 -10 3 -6 15 -10 26 -10 10 0 19 -4 19 -10 0 -5 25 -17 55 -25 30 -9 55
-21 55 -26 0 -5 16 -9 35 -9 19 0 35 -4 35 -10 0 -6 28 -10 65 -10 37 0 65 -4
65 -10 0 -13 107 -13 115 0 3 5 33 10 65 10 32 0 62 5 65 10 3 6 15 10 26 10
10 0 27 4 37 9 9 5 45 18 80 27 34 10 62 21 62 26 0 4 9 8 20 8 11 0 20 5 20
10 0 6 9 10 21 10 22 0 132 50 137 63 2 4 12 7 23 7 10 0 19 5 19 10 0 6 7 10
15 10 8 0 15 3 15 8 0 4 25 20 55 36 30 16 55 32 55 37 0 5 8 9 18 9 10 0 24
9 32 20 8 11 20 20 27 20 7 0 23 11 37 25 14 14 31 25 39 25 7 0 31 16 53 35
55 49 62 55 69 55 3 0 21 16 41 35 19 19 39 35 43 35 13 0 261 249 261 262 0
6 20 31 45 55 25 23 45 49 45 56 0 7 8 22 18 33 10 10 27 34 37 52 11 17 23
32 27 32 4 0 8 8 8 18 0 10 9 24 20 32 11 8 20 20 20 26 0 17 33 74 43 74 4 0
7 11 7 25 0 14 5 25 10 25 6 0 10 9 10 20 0 11 5 20 10 20 6 0 10 9 10 20 0
11 4 20 10 20 5 0 12 11 16 25 3 14 10 25 15 25 5 0 9 9 9 19 0 11 4 23 10 26
6 3 10 15 10 26 0 10 5 19 10 19 6 0 10 11 10 25 0 13 8 39 19 58 10 18 22 48
26 65 3 18 11 32 16 32 5 0 9 7 9 15 0 16 19 42 64 86 24 24 38 29 77 29 27 0
49 -4 49 -10 0 -16 73 -12 108 5 17 9 43 30 57 48 14 18 30 37 35 44 6 7 10
19 10 28 0 8 5 15 10 15 6 0 10 11 10 25 0 14 5 25 10 25 6 0 10 9 10 20 0 11
4 20 10 20 5 0 12 16 16 35 3 19 10 35 15 35 5 0 9 16 9 35 0 19 5 35 10 35 6
0 10 13 10 29 0 17 5 33 10 36 6 3 10 24 10 46 0 21 4 39 8 39 5 0 16 41 26
90 11 50 23 90 27 90 5 0 9 20 9 44 0 25 5 48 10 51 6 4 10 70 10 165 0 95 -4
161 -10 165 -5 3 -10 14 -10 24 0 10 -11 31 -25 47 -14 16 -25 32 -25 37 0 4
-8 7 -18 7 -10 0 -24 6 -30 12 -10 10 -17 10 -32 0 -11 -6 -27 -12 -35 -12 -8
0 -15 -4 -15 -9 0 -5 -8 -11 -17 -14 -10 -2 -26 -8 -36 -12 -17 -7 -17 -6 0
31 10 22 21 41 26 42 4 2 7 12 7 23 0 10 5 19 10 19 6 0 10 11 10 25 0 14 3
25 8 25 4 0 16 20 27 45 11 25 23 45 28 45 4 0 7 9 7 20 0 11 5 20 10 20 6 0
10 16 10 35 0 19 5 35 10 35 6 0 10 9 10 19 0 11 3 21 8 23 9 4 42 100 42 122
0 9 5 16 10 16 6 0 10 20 10 45 0 25 5 45 10 45 6 0 10 28 10 65 0 37 4 65 10
65 6 0 10 100 10 280 0 180 -4 280 -10 280 -6 0 -10 31 -10 74 0 41 -4 78 -10
81 -5 3 -10 21 -10 40 0 39 -45 242 -60 267 -5 10 -10 29 -10 43 0 14 -4 25
-10 25 -5 0 -10 16 -10 35 0 19 -3 35 -8 35 -8 0 -27 42 -36 83 -4 15 -11 27
-16 27 -6 0 -10 9 -10 19 0 11 -4 23 -10 26 -5 3 -10 15 -10 26 0 10 -4 19 -8
19 -5 0 -14 16 -22 35 -8 19 -17 35 -20 35 -4 0 -16 20 -29 44 -12 25 -35 59
-51 76 -17 18 -30 35 -30 40 0 4 -12 20 -28 36 -15 16 -41 47 -57 69 -35 47
-194 205 -206 205 -5 0 -34 25 -65 55 -32 30 -62 55 -68 55 -7 0 -18 9 -26 20
-8 11 -18 20 -23 20 -5 0 -15 6 -22 13 -33 29 -45 37 -54 37 -5 0 -11 3 -13 8
-1 4 -24 18 -50 31 -26 13 -49 30 -52 37 -3 8 -15 14 -26 14 -11 0 -20 5 -20
10 0 6 -9 10 -20 10 -11 0 -20 5 -20 10 0 6 -6 10 -12 10 -16 0 -122 52 -126
63 -2 4 -12 7 -23 7 -10 0 -19 5 -19 10 0 6 -13 10 -29 10 -17 0 -33 5 -36 10
-3 6 -15 10 -26 10 -10 0 -19 4 -19 9 0 5 -16 12 -35 15 -19 4 -35 11 -35 16
0 6 -13 10 -29 10 -17 0 -33 5 -36 10 -3 6 -19 10 -36 10 -16 0 -29 5 -29 10
0 6 -17 10 -38 10 -21 0 -42 4 -47 9 -12 10 -147 41 -181 41 -13 0 -24 5 -24
10 0 6 -24 10 -54 10 -30 0 -58 5 -61 10 -3 6 -40 10 -81 10 -43 0 -74 4 -74
10 0 6 -116 10 -329 10 -209 0 -332 -4 -336 -10z m-670 -2560 c77 -6 167 -16
200 -21 33 -6 81 -13 108 -16 26 -2 47 -9 47 -14 0 -5 25 -9 55 -9 30 0 55 -4
55 -10 0 -5 15 -10 34 -10 18 0 47 -7 62 -15 16 -8 41 -15 57 -15 15 0 27 -4
27 -10 0 -5 16 -10 35 -10 19 0 35 -4 35 -10 0 -5 18 -10 39 -10 22 0 43 -4
46 -10 3 -5 16 -10 29 -10 12 0 26 -3 29 -6 12 -13 112 -43 141 -44 18 0 26
-4 23 -12 -3 -10 24 -12 123 -10 112 3 132 1 159 -16 28 -17 30 -20 13 -24
-23 -6 -62 -100 -69 -168 -3 -25 -10 -51 -16 -57 -12 -16 -89 -17 -105 -1 -9
9 -12 9 -12 0 0 -7 -6 -12 -13 -12 -8 0 -13 13 -13 33 -2 89 -35 227 -55 227
-7 0 -9 -22 -5 -62 20 -214 20 -211 -8 -253 -14 -21 -26 -44 -26 -51 0 -8 -4
-14 -10 -14 -5 0 -10 -9 -10 -20 0 -11 -3 -20 -8 -20 -4 0 -13 -15 -21 -32
-23 -53 -90 -197 -132 -283 -21 -45 -39 -86 -39 -93 0 -7 -4 -12 -10 -12 -5 0
-10 -7 -10 -15 0 -8 -4 -15 -8 -15 -5 0 -17 -18 -27 -40 -10 -22 -22 -40 -27
-40 -4 0 -8 -5 -8 -10 0 -22 -166 -190 -187 -190 -7 0 -13 -4 -13 -8 0 -12
-58 -37 -120 -52 -30 -8 -59 -17 -64 -22 -13 -11 -333 -10 -354 1 -9 5 -44 11
-77 14 -33 4 -87 14 -120 23 -33 9 -72 18 -88 21 -15 3 -30 9 -33 14 -3 5 -13
9 -23 9 -38 0 -165 83 -227 147 -41 43 -55 64 -103 151 -18 33 -31 82 -40 152
-5 30 -11 62 -14 70 -3 8 -8 109 -10 225 -3 142 -8 210 -16 213 -6 2 -11 13
-11 25 0 13 -22 42 -55 73 -55 52 -55 52 -55 113 0 33 4 62 9 65 4 3 11 29 14
57 8 68 19 79 78 79 27 0 49 4 49 9 0 4 30 11 68 14 37 4 103 11 147 17 104
15 386 27 405 18 8 -3 78 -12 155 -18z m2450 -180 c33 -6 102 -13 153 -16 50
-4 92 -11 92 -15 0 -5 29 -9 65 -9 37 0 65 -4 65 -10 0 -5 17 -10 39 -10 21 0
44 -6 50 -14 11 -13 21 -16 99 -32 17 -3 32 -10 32 -15 0 -5 16 -9 35 -9 19 0
35 -4 35 -10 0 -5 18 -10 39 -10 22 0 42 -4 45 -9 3 -4 19 -11 36 -14 l30 -6
0 -130 0 -129 -28 -13 c-45 -22 -99 -73 -115 -110 -21 -49 -43 -161 -54 -281
-2 -32 -8 -58 -13 -58 -4 0 -11 -17 -14 -37 -4 -21 -11 -49 -15 -63 -5 -14
-14 -45 -22 -70 -7 -25 -16 -49 -21 -54 -4 -6 -8 -18 -8 -28 0 -10 -4 -18 -9
-18 -5 0 -12 -9 -16 -20 -3 -11 -24 -39 -45 -62 -22 -24 -40 -49 -40 -55 0 -7
-6 -13 -13 -13 -7 0 -28 -13 -47 -28 -42 -34 -122 -77 -170 -91 -92 -26 -125
-31 -255 -37 -140 -6 -326 6 -420 26 -27 6 -65 14 -82 17 -18 3 -33 8 -33 12
0 3 -15 12 -32 19 -18 8 -44 19 -57 25 -36 18 -137 122 -174 180 -40 63 -87
162 -87 182 0 8 -4 15 -10 15 -5 0 -10 11 -10 24 0 14 -4 27 -9 30 -5 3 -11
18 -14 33 -7 41 -66 235 -77 255 -6 10 -10 25 -10 35 0 17 -3 26 -45 155 -25
78 -33 172 -15 183 6 3 10 24 10 45 0 21 5 42 10 45 6 3 10 14 10 24 0 28 28
77 53 94 12 8 49 17 82 21 145 17 218 25 345 36 74 7 139 16 144 21 13 11 420
11 491 -1z"/>
<path d="M1600 3599 c-97 -15 -121 -34 -148 -121 -13 -40 -28 -81 -33 -90 -5
-10 -9 -42 -9 -71 0 -29 -5 -58 -10 -63 -12 -12 -8 -460 4 -509 14 -57 55
-145 68 -145 4 0 8 -7 8 -15 0 -21 74 -95 94 -95 9 0 16 -4 16 -10 0 -5 7 -10
15 -10 8 0 15 -4 15 -10 0 -5 8 -10 19 -10 10 0 24 -7 31 -15 7 -8 21 -15 31
-15 10 0 21 -4 24 -10 3 -5 22 -10 41 -10 19 0 34 -4 34 -10 0 -5 19 -10 43
-10 24 0 47 -4 53 -9 5 -5 52 -11 104 -13 53 -2 101 -7 107 -11 15 -9 153 -4
153 6 0 4 15 7 34 7 19 0 38 5 41 10 3 6 17 10 31 10 13 0 24 3 24 8 0 4 14
13 30 21 40 17 180 153 180 174 0 10 4 17 9 17 5 0 16 16 25 35 9 19 21 35 26
35 6 0 10 8 10 18 0 10 6 24 13 31 10 10 8 15 -7 27 -19 13 -19 14 7 14 22 0
27 5 27 23 0 13 -5 28 -11 34 -9 9 -7 11 8 7 16 -4 25 2 37 27 9 17 16 42 16
55 0 13 5 26 10 29 6 3 10 19 10 36 0 16 5 29 10 29 6 0 10 9 10 21 0 11 4 28
10 38 16 31 29 230 16 265 -11 32 -57 86 -73 86 -5 0 -18 8 -29 18 -11 10 -28
21 -39 24 -11 3 -53 18 -94 33 -91 32 -186 54 -331 75 -41 6 -86 13 -100 16
-124 22 -472 36 -560 23z m520 -413 c0 -9 -7 -13 -19 -11 -15 3 -18 0 -14 -13
6 -15 5 -16 -13 -2 -18 14 -18 14 1 -10 11 -14 21 -27 23 -30 2 -3 3 2 2 10
-4 27 0 41 10 35 5 -3 7 -13 4 -23 -5 -14 -4 -14 4 -2 6 8 8 18 6 22 -3 4 -1
8 5 8 13 0 10 -34 -3 -46 -18 -15 -76 -13 -76 4 0 12 3 12 18 1 15 -13 16 -12
4 3 -8 10 -18 16 -22 15 -10 -3 -11 3 -4 31 5 17 13 22 40 22 23 0 34 -5 34
-14z"/>
<path d="M3935 3409 c-107 -7 -208 -24 -260 -43 -70 -26 -109 -56 -133 -101
-30 -55 -17 -414 16 -447 7 -7 12 -30 12 -51 0 -37 2 -39 25 -33 14 4 25 2 25
-4 0 -5 -7 -10 -16 -10 -13 0 -15 -7 -10 -32 4 -18 9 -48 13 -66 3 -18 9 -35
14 -38 5 -3 9 -13 9 -23 0 -10 7 -24 15 -31 8 -7 15 -21 15 -32 0 -10 9 -29
21 -41 12 -12 25 -34 31 -48 5 -14 20 -32 33 -39 14 -7 27 -21 30 -31 4 -10
19 -26 36 -36 16 -9 29 -21 29 -25 0 -4 9 -8 20 -8 11 0 20 -4 20 -10 0 -5 9
-10 20 -10 11 0 23 -7 27 -15 3 -9 13 -15 22 -14 9 1 29 -3 44 -9 16 -7 53
-12 83 -12 32 0 54 -4 54 -11 0 -8 46 -9 153 -5 172 6 248 14 261 27 6 5 24 9
42 9 19 0 34 6 38 15 3 8 15 15 26 15 11 0 20 5 20 10 0 6 7 10 16 10 22 0
127 108 147 152 10 20 22 40 27 43 6 3 10 17 10 30 0 13 5 27 10 30 6 3 10 17
10 31 0 13 4 32 9 42 34 66 59 413 39 562 -7 52 -11 98 -10 102 1 4 -7 10 -18
13 -11 4 -20 13 -20 20 0 29 -90 65 -210 85 -198 31 -529 44 -745 29z m75
-362 c0 -20 -12 -28 -25 -17 -9 8 -12 4 -11 -12 1 -14 -4 -22 -12 -20 -8 1
-11 -2 -8 -7 4 -5 2 -12 -4 -16 -15 -9 -13 53 3 70 15 18 57 19 57 2z m18 -42
c-1 -23 -4 -31 -9 -23 -7 10 -9 10 -9 -1 0 -15 -7 -12 -10 4 -1 6 -7 16 -13
24 -9 11 -9 13 -1 8 7 -4 17 0 24 8 18 21 20 19 18 -20z m-41 -11 c-3 -4 -2
-14 3 -23 6 -13 4 -17 -11 -18 -10 -1 -19 4 -19 11 0 12 19 36 29 36 2 0 1 -3
-2 -6z"/>
</g>
</svg>
