<svg height="221" viewBox="0 0 935 221" width="935"><path d="m163.411004 5c-23.549968 57.7243044-44.429904 99.076893-62.639808 124.057764-9.8583173 13.523924-21.0077749 32.324647-38.1871065 48.442236-7.3644048 6.909259-18.217266 21.05855-34.8096036 32.805244-1.5042463 1.064944-16.0887489 8.527776-20.91548418 4.532348-4.55966865-3.774357.54457043-18.914344 1.81346393-21.410674 3.37599705-6.641693 12.57198365-15.546987 27.58795995-26.71588 15.048548-11.200972 28.2696745-19.484135 39.6633795-24.84949 11.393705-5.365356 28.8278049-12.345664 52.3022989-20.940927 66.754587-19.746338 108.172756-33.5843443 124.254508-41.5140191 23.842814-11.7565399 19.259583-24.0151636 18.077553-29.4736907-.974498-4.500153-12.466351-12.5521852-30.250768-9.1418133-14.520866 2.7845473-32.192579 15.6465619-43.035275 22.578523-16.081518 10.2812497-39.096858 27.041631-69.046018 50.2811441-12.819983 10.827435-21.971619 19.229588-27.454908 25.206457-4.4502652 4.850857 39.874041 47.368947 70.048635 51.426173 20.116397 2.704818 49.081384 1.333615 86.894962-4.113609 14.939699-5.779857 27.934774-11.048571 38.985224-15.80614s19.347782-13.876802 24.891997-27.3577c.890118-20.182088-8.183532-32.021888-27.22095-35.519401-13.142853-2.414577-44.706311 13.434076-50.652894 38.790558-1.367404 5.830665-1.352225 17.509554 6.435938 27.764546 2.984618 3.929968 11.035542 9.343884 24.15277 16.241746 17.145596 4.951458 31.619778 7.015464 43.422546 6.192018 11.802767-.823446 29.183206-5.10986 52.141316-12.859241 18.903729-8.349484 31.821664-16.027481 38.753805-23.033992 5.345545-5.402894 18.97592-21.486802 22.76858-38.236981 1.941769-8.575769 3.654569-26.8265716-4.243746-36.4927858-6.683428-8.1793951-22.560572-8.6849042-27.168061-7.7248069-4.166102.8681222-12.987387 6.7604247-13.944676 13.7456461-.7767 5.6674925 5.408356 12.2965966 9.214692 15.6132926 5.62209 4.898875 19.212131 13.970492 40.770123 27.21485 3.920379 3.28984 6.871958 6.058024 8.854736 8.304551 1.425383 1.614987 7.834211 7.305152 9.145406 14.691572 1.424709 8.02589-2.410921 17.875521-5.277506 21.974649-2.966418 4.241885-11.54939 14.375805-21.594714 18.621277-8.595752 3.632836-18.857748 1.798512-20.949 1.153742-1.949389-.601032-7.845034-5.101812-6.219061-11.327379 2.156783-8.257944 12.72822-19.101011 16.166827-23.505782 4.020622-5.150319 10.645059-11.999396 19.873312-20.547232l82.496498-95.7520833c4.267776-5.1875123 7.084749-7.6953829 8.450917-7.5236118 2.049252.2576566 2.792591 18.4587276 1.692311 24.3414093-.733521 3.9217878-2.460071 9.732837-5.179651 17.4331476l-13.108043 29.8598072-12.789174 22.275933-24.191252 34.059813-8.216325 14.854964c-2.168716 5.335924-2.671804 8.606173-1.509263 9.810746 1.16254 1.204573 4.821763 1.204573 10.977668 0l52.323729-24.66571 48.068826-21.565355c9.420089-2.933298 14.912797-3.976318 16.478126-3.12906 1.565329.847257-.363585 4.221849-5.78674 10.123776l-14.507795 13.74105c-1.811719 4.610782-2.25681 7.462801-1.335272 8.556058.921539 1.093257 5.289904 1.387869 13.105097.883837 20.261239-5.191043 35.289631-9.443539 45.085177-12.757489 9.795546-3.313951 22.121803-8.315858 36.978769-15.005723 13.636525-6.209214 19.391082-8.056384 17.26367-5.541509-2.127411 2.514874-15.015452 12.137327-38.664121 28.86736l-7.063254 6.738014c-1.501534 4.331746-1.238423 7.147626.789331 8.44764 2.027754 1.300013 6.445139 2.366889 13.252154 3.200626 13.583069-1.053553 23.771261-2.120428 30.564576-3.200626 6.793315-1.080199 15.219123-2.973117 25.277424-5.678755 35.043779-7.117222 61.189084-13.059565 78.435914-17.827027 12.702343-3.511251 45.011484-10.087476 90.327281-27.839923 10.80835-4.234167 26.071591-11.591774 45.789721-22.072819 6.557261-6.169217 9.295673-9.894787 8.215235-11.176709-1.080437-1.281923-10.771638-2.026869-29.073602-2.234839" fill="none" stroke="#3b82e8" stroke-linecap="round" stroke-width="10"/></svg>